<?xml version="1.0" standalone="no"?>
<!DOCTYPE svg PUBLIC "-//W3C//DTD SVG 20010904//EN"
 "http://www.w3.org/TR/2001/REC-SVG-20010904/DTD/svg10.dtd">
<svg version="1.0" xmlns="http://www.w3.org/2000/svg"
 width="972.000000pt" height="972.000000pt" viewBox="0 0 972.000000 972.000000"
 preserveAspectRatio="xMidYMid meet">
<metadata>
Created by potrace 1.11, written by Peter Selinger 2001-2013
</metadata>
<g transform="translate(0.000000,972.000000) scale(0.100000,-0.100000)"
fill="#000000" stroke="none">
<path d="M1189 8733 c-228 -173 -212 -158 -205 -190 3 -15 8 -50 11 -78 3 -27
10 -75 15 -105 5 -30 12 -77 16 -105 3 -27 8 -59 10 -70 2 -10 6 -37 9 -60 3
-22 12 -81 20 -131 8 -49 17 -110 19 -135 3 -24 9 -69 15 -99 5 -30 13 -77 16
-104 3 -27 8 -52 9 -55 2 -3 6 -30 10 -59 10 -81 22 -170 31 -213 2 -14 7 -45
9 -70 3 -24 6 -44 6 -44 1 0 4 -11 6 -25 2 -14 5 -38 8 -55 2 -16 7 -52 10
-80 10 -73 11 -79 17 -90 2 -5 4 -25 4 -42 0 -18 2 -33 5 -33 3 0 6 -17 7 -38
0 -20 3 -48 6 -62 3 -14 9 -47 13 -75 4 -27 9 -59 10 -70 5 -30 18 -126 29
-201 8 -55 4 -61 -86 -140 -42 -37 -89 -92 -89 -104 0 -6 -4 -9 -8 -6 -5 3
-24 -25 -43 -62 l-34 -67 -3 38 c-2 20 -7 37 -12 37 -5 0 -7 6 -4 14 3 8 0 17
-7 22 -7 4 -10 3 -5 -4 3 -5 2 -12 -2 -14 -13 -5 -81 -189 -88 -238 -3 -25 -8
-58 -12 -75 -16 -87 -5 -454 18 -585 5 -30 12 -75 15 -99 3 -25 10 -50 16 -58
7 -8 8 -13 1 -13 -5 0 -10 -6 -9 -12 1 -31 -4 -48 -13 -48 -6 0 -18 -8 -28
-17 -11 -10 -32 -27 -48 -38 -38 -26 -165 -154 -201 -202 -15 -21 -30 -40 -33
-43 -24 -24 -83 -132 -115 -210 -21 -52 -41 -99 -45 -105 -8 -11 -28 -69 -35
-104 -3 -11 -7 -30 -10 -42 -2 -11 -7 -30 -11 -41 -3 -11 -7 -30 -9 -41 -1
-12 -6 -47 -9 -77 -12 -92 -13 -121 -2 -127 6 -3 8 -2 3 2 -4 5 0 17 10 27 9
10 14 18 10 18 -5 0 18 113 30 140 7 17 10 27 17 55 2 11 12 38 22 60 10 22
18 42 19 45 5 17 32 67 42 78 7 8 11 18 8 23 -4 5 -1 9 4 9 6 0 11 5 11 10 0
10 5 18 35 53 6 7 25 32 43 57 45 65 101 124 120 127 36 7 89 14 127 18 22 2
40 4 40 5 0 2 34 10 68 15 15 2 27 1 27 -2 0 -3 -11 -30 -25 -59 -38 -81 -91
-215 -108 -275 -14 -48 -21 -82 -42 -194 -13 -68 -16 -82 -27 -135 -15 -74
-13 -65 -38 -155 -58 -210 -169 -348 -287 -359 -53 -4 -128 20 -178 57 -55 41
-88 93 -120 189 -10 32 -22 55 -25 50 -12 -14 -30 -117 -26 -153 13 -128 42
-201 107 -270 62 -65 97 -81 167 -76 84 7 156 45 238 125 63 62 183 224 204
276 18 44 10 -58 -11 -134 -14 -53 -33 -93 -64 -135 -51 -69 -85 -105 -101
-105 -6 0 -19 -9 -29 -20 -10 -11 -22 -20 -26 -20 -5 0 -31 -13 -59 -30 -27
-16 -50 -27 -50 -23 0 3 -8 -1 -18 -9 -9 -9 -31 -22 -47 -31 -17 -8 -54 -37
-83 -63 -46 -43 -58 -63 -103 -174 -52 -128 -63 -173 -62 -270 1 -88 2 -100
14 -100 5 0 8 4 5 9 -4 5 -2 11 2 13 5 1 36 59 70 128 58 118 89 166 138 214
41 39 79 72 104 87 51 33 240 229 240 249 0 5 4 10 9 12 7 2 63 102 66 118 1
3 12 29 25 58 25 58 43 54 28 -7 -5 -20 -11 -45 -13 -56 -3 -10 -11 -33 -19
-50 -8 -16 -21 -46 -30 -65 -23 -49 -47 -87 -78 -124 -14 -17 -70 -83 -124
-146 -53 -63 -101 -116 -106 -118 -4 -2 -8 -8 -8 -12 0 -5 -19 -37 -43 -72
-42 -61 -110 -202 -122 -253 -2 -5 -13 -48 -24 -94 -12 -46 -20 -90 -17 -97 3
-7 1 -16 -3 -19 -10 -6 -7 -246 4 -290 4 -16 8 -39 10 -50 6 -44 69 -189 150
-346 5 -10 13 -19 17 -19 5 0 8 -7 8 -15 0 -8 9 -24 19 -34 32 -32 40 -7 20
67 -79 297 -68 644 28 891 15 39 31 67 35 65 5 -3 7 -13 4 -22 -20 -70 -28
-337 -12 -427 4 -22 9 -49 10 -60 2 -11 7 -36 10 -55 4 -19 8 -42 10 -50 2 -8
6 -22 9 -30 3 -8 16 -48 28 -88 21 -72 136 -311 164 -343 8 -8 15 -20 15 -25
0 -5 17 -32 39 -60 21 -28 42 -58 47 -67 13 -23 127 -139 159 -162 16 -11 35
-27 44 -35 25 -24 117 -80 129 -80 7 0 12 -5 12 -11 0 -5 4 -8 8 -5 5 3 18 -3
30 -14 31 -30 224 -112 289 -124 15 -3 48 -12 73 -21 71 -26 153 -47 178 -46
13 0 31 -3 40 -8 9 -5 46 -12 81 -15 35 -3 66 -8 70 -10 3 -2 42 -7 86 -10 44
-4 105 -9 135 -12 121 -10 504 -4 685 11 39 3 126 8 195 10 340 12 417 16 435
19 11 3 28 5 39 5 15 1 17 6 12 33 -3 18 -12 36 -19 40 -6 4 -8 8 -4 8 4 0 3
6 -3 12 -33 37 -189 345 -196 388 -2 8 -8 24 -15 37 -7 13 -10 25 -7 28 2 3
49 -4 104 -16 54 -11 110 -23 124 -25 14 -3 68 -14 120 -25 52 -11 223 -47
380 -79 243 -50 327 -67 465 -96 11 -2 34 -7 50 -10 17 -3 87 -17 156 -32 136
-29 133 -27 267 -144 l55 -48 244 0 245 0 46 38 c25 20 53 44 62 52 72 66 87
76 147 86 64 12 1081 215 1118 224 22 5 123 26 225 46 102 20 194 38 205 40
11 2 36 7 55 10 41 7 83 29 293 155 87 52 172 102 190 113 27 15 483 286 682
404 33 20 61 37 62 37 1 1 -2 17 -7 36 -34 120 -192 769 -193 789 0 24 10 269
18 400 2 36 6 129 10 208 3 78 8 175 10 215 2 40 7 126 10 191 5 111 8 124 39
180 33 62 149 269 166 296 5 8 28 49 51 90 23 41 50 86 60 100 9 14 16 27 16
30 0 3 6 16 15 30 8 14 67 117 131 230 63 113 129 230 146 260 53 92 58 110
76 245 10 72 19 139 21 150 3 11 6 36 9 55 2 19 7 53 11 75 4 22 8 51 9 65 2
14 5 39 8 55 3 17 8 50 12 75 3 25 8 56 11 70 2 14 7 41 9 60 2 19 6 46 8 60
2 14 8 50 12 80 4 30 9 64 12 75 2 11 6 40 8 64 3 24 7 51 9 60 3 9 8 40 11
70 4 30 9 63 11 75 2 12 6 41 9 66 3 25 8 56 10 70 3 14 7 41 11 60 3 19 8 50
10 68 5 39 11 86 18 130 3 18 8 52 11 75 4 23 12 83 20 132 8 50 17 110 20
135 3 25 8 56 10 70 2 14 6 39 9 55 7 42 27 183 31 214 2 14 9 55 15 91 6 36
13 85 15 110 3 25 9 68 15 95 5 28 15 88 21 135 18 129 28 198 36 245 7 42 10
63 17 120 3 28 8 61 11 75 4 22 -14 39 -179 163 -100 75 -186 137 -190 137 -4
0 -28 -17 -52 -39 -24 -21 -88 -68 -141 -104 -54 -37 -150 -102 -213 -146 -63
-44 -178 -123 -255 -176 -77 -53 -174 -120 -215 -148 -890 -614 -806 -561
-1050 -672 -118 -54 -246 -112 -285 -130 -38 -18 -146 -68 -240 -110 -93 -43
-251 -115 -350 -160 -99 -45 -261 -119 -360 -165 -99 -45 -202 -92 -230 -105
-27 -13 -89 -41 -136 -63 l-86 -39 -363 -1 -363 0 -64 29 c-34 16 -91 42 -125
58 -35 16 -115 52 -178 81 -63 29 -144 66 -180 82 -36 17 -139 64 -230 105
-91 42 -201 92 -245 113 -44 21 -102 47 -130 60 -27 12 -79 36 -115 52 -36 16
-168 77 -295 135 -126 58 -259 119 -295 135 -60 28 -731 482 -738 500 -2 4 -7
8 -12 8 -4 0 -137 89 -294 198 -157 108 -376 259 -486 336 -111 76 -207 145
-215 152 -7 8 -17 14 -22 14 -5 0 -78 -53 -164 -117z m8207 -316 c-84 -63
-203 -151 -216 -161 -13 -9 -13 -8 0 6 21 22 231 178 239 177 3 0 -7 -10 -23
-22z m-236 -171 c0 -2 -8 -10 -17 -17 -16 -13 -17 -12 -4 4 13 16 21 21 21 13z
m-6676 -565 c-2 -3 -12 3 -22 13 -16 17 -16 18 5 5 12 -7 20 -15 17 -18z m87
-88 c13 -16 12 -17 -3 -4 -10 7 -18 15 -18 17 0 8 8 3 21 -13z m78 -86 c-2 -2
-17 12 -33 32 l-30 36 34 -32 c19 -18 32 -34 29 -36z m34 -27 c9 -11 13 -20 7
-20 -5 0 -14 9 -20 20 -6 11 -9 20 -8 20 2 0 11 -9 21 -20z m42 -50 c10 -11
16 -20 13 -20 -3 0 -13 9 -23 20 -10 11 -16 20 -13 20 3 0 13 -9 23 -20z m39
-36 c3 -8 2 -12 -4 -9 -6 3 -10 10 -10 16 0 14 7 11 14 -7z m-1429 -1214 c3
-30 8 -66 10 -80 3 -14 7 -38 10 -55 3 -16 7 -39 9 -50 2 -11 10 -66 17 -122
7 -57 16 -103 19 -103 3 0 6 -17 6 -38 1 -34 12 -124 20 -162 1 -8 3 -28 3
-43 1 -16 4 -26 9 -23 4 2 8 -9 8 -25 2 -27 -12 -43 -13 -16 -1 13 -21 72 -33
97 -4 8 -6 23 -4 33 1 9 -2 17 -6 17 -5 0 -7 9 -5 20 2 11 -1 20 -7 20 -6 0
-8 9 -5 20 3 11 1 23 -5 26 -5 3 -7 12 -4 20 3 8 1 14 -5 14 -6 0 -9 7 -6 15
4 8 2 17 -4 21 -6 3 -8 12 -5 20 3 8 2 14 -2 14 -4 0 -8 8 -8 18 -1 16 -5 41
-19 107 -14 65 -22 230 -12 265 7 25 19 51 23 48 1 -2 6 -28 9 -58z m-102 -89
c-5 -3 -9 -26 -8 -51 0 -25 -3 -51 -8 -57 -6 -9 -5 -13 4 -13 11 0 11 -2 -1
-10 -10 -6 -11 -10 -3 -10 9 0 12 -13 10 -40 -2 -22 1 -40 6 -40 5 0 4 -6 -2
-14 -9 -11 -8 -17 2 -28 7 -7 12 -19 9 -27 -2 -7 2 -17 9 -22 8 -5 9 -9 3 -9
-8 0 -8 -11 2 -39 7 -21 15 -51 18 -67 2 -16 5 -29 6 -29 1 0 4 -13 14 -65 2
-14 5 -27 6 -30 2 -3 2 -9 1 -14 -1 -5 1 -16 5 -25 4 -9 8 -25 10 -36 2 -23
30 -138 43 -178 7 -20 6 -25 -2 -20 -9 5 -9 3 0 -8 12 -15 0 -50 -13 -36 -4 4
-13 -1 -20 -11 -15 -20 -35 -22 -49 -5 -8 10 -20 8 -57 -11 -26 -13 -49 -21
-52 -18 -4 3 -6 0 -6 -6 0 -7 -3 -11 -7 -10 -10 2 -47 -14 -53 -22 -3 -4 -15
-10 -27 -14 -22 -7 -29 4 -24 37 0 4 -4 7 -9 7 -7 0 -7 6 0 20 6 11 7 20 2 20
-4 0 -9 17 -11 38 -4 51 -9 87 -11 87 -1 0 -3 12 -5 28 -2 18 0 25 7 21 7 -5
8 -2 2 7 -5 8 -10 46 -11 84 -1 39 -2 70 -3 70 -1 0 -10 93 -11 110 0 37 13
137 23 175 15 53 78 173 113 215 13 17 28 35 33 40 4 6 11 18 15 28 6 17 8 17
32 1 15 -9 22 -20 18 -23z m227 -701 c0 -11 -2 -20 -4 -20 -2 0 -6 9 -9 20 -3
11 -1 20 4 20 5 0 9 -9 9 -20z m58 -120 c28 -49 47 -90 42 -90 -5 0 -11 8 -14
18 -4 10 -16 29 -28 42 -12 13 -23 31 -25 39 -1 9 -6 17 -12 19 -5 2 -7 10 -4
18 3 8 1 14 -4 14 -5 0 -10 7 -10 15 0 8 1 15 3 15 1 0 25 -40 52 -90z m132
-242 c0 -5 -7 -7 -16 -4 -9 3 -20 6 -25 6 -6 0 -7 5 -4 10 3 6 1 10 -6 10 -7
0 -9 3 -6 6 3 4 1 16 -5 27 -6 11 -12 36 -14 56 -3 34 -1 32 36 -32 22 -38 40
-73 40 -79z m-247 33 c-2 -6 2 -11 7 -11 6 0 10 -5 10 -11 0 -18 -23 -4 -32
20 -6 16 -5 21 5 18 6 -2 11 -10 10 -16z m-48 -18 c24 -85 25 -110 7 -126 -19
-17 -160 -67 -190 -67 -10 0 -22 -3 -26 -7 -4 -5 -16 -9 -27 -9 -10 -1 -21 -3
-24 -4 -3 -1 -13 -3 -22 -5 -10 -1 -25 -4 -33 -8 -8 -3 -26 -8 -40 -10 -55
-11 -73 -17 -86 -28 -8 -6 -14 -9 -14 -6 0 3 -16 1 -35 -3 -42 -9 -43 -5 -10
26 14 13 25 21 25 19 0 -2 15 11 34 30 19 18 37 31 40 28 3 -4 6 -1 6 6 0 7 5
9 10 6 6 -3 10 -2 10 3 0 5 18 17 40 27 22 10 40 22 40 27 0 4 9 8 19 8 11 0
21 5 23 11 2 5 10 12 18 14 39 8 60 18 60 27 0 5 5 6 10 3 6 -3 10 -1 10 5 0
6 5 8 12 4 6 -4 17 1 25 12 8 10 16 18 18 17 10 -5 66 10 71 18 10 17 22 9 29
-18z m315 -34 c0 -6 9 -24 21 -40 11 -16 17 -29 13 -29 -4 0 -1 -8 7 -17 8
-10 20 -29 27 -42 8 -13 23 -40 34 -60 12 -20 32 -56 46 -81 13 -25 32 -58 42
-75 10 -16 26 -46 37 -65 10 -19 47 -84 81 -145 77 -134 74 -129 110 -191 l30
-51 -31 4 c-66 9 -252 4 -252 -7 0 -1 -10 -3 -21 -5 -12 -3 -34 -9 -50 -15
-16 -6 -30 -11 -31 -11 -1 0 -22 -11 -45 -24 -123 -69 -182 -93 -222 -90 -22
2 -42 8 -44 14 -2 5 -9 8 -16 5 -17 -6 -65 33 -76 62 -5 13 -17 24 -25 24 -9
0 -14 4 -11 9 4 5 -3 7 -13 4 -45 -12 25 -115 88 -130 14 -3 31 -9 36 -13 6
-4 23 -10 38 -14 34 -8 29 -18 -20 -42 -47 -22 -58 -25 -107 -28 -70 -5 -149
55 -145 108 0 5 -5 12 -12 16 -6 5 -13 23 -13 42 -1 18 -4 38 -7 43 -8 14 -4
148 4 162 4 6 3 14 -3 18 -6 4 -7 12 -3 18 4 7 9 28 10 47 1 19 4 46 7 60 2
14 8 46 12 73 3 26 9 47 13 47 3 0 7 10 7 23 3 46 9 77 15 77 3 0 5 10 4 23
-2 22 20 86 27 78 3 -4 76 17 93 28 12 7 18 8 46 10 13 1 18 5 13 14 -6 9 -4
9 8 -1 14 -11 23 -40 34 -107 1 -5 2 -12 3 -15 12 -32 20 -309 10 -316 -4 -2
-2 -15 4 -28 10 -21 13 -22 23 -7 12 15 13 15 19 -1 4 -10 11 -18 17 -18 5 0
6 5 3 10 -3 6 -2 10 3 10 5 0 13 20 16 45 4 25 12 45 17 45 6 0 7 5 4 10 -4 6
-2 16 3 23 9 10 28 71 37 117 2 8 4 15 5 15 1 0 4 14 6 30 11 63 12 70 14 70
2 0 3 11 4 25 1 14 6 31 11 39 5 10 4 16 -3 19 -7 2 -9 9 -5 15 10 17 11 87 1
93 -5 3 -4 12 3 20 6 8 8 14 3 14 -5 0 -1 7 10 15 10 8 16 21 13 29 -6 15 0
26 15 26 4 0 8 -5 8 -11z m469 -971 c8 -47 11 -198 4 -199 -4 -1 -28 -2 -53
-3 -58 -4 -126 -15 -157 -27 -14 -5 -28 -7 -33 -4 -5 3 -11 1 -15 -5 -4 -6
-11 -8 -16 -5 -5 4 -9 2 -9 -3 0 -5 -6 -9 -12 -9 -7 0 -31 -3 -53 -7 -86 -15
-113 -18 -185 -20 -41 -2 -80 1 -87 6 -7 5 -14 5 -17 -1 -5 -7 -16 -7 -34 1
-15 5 -36 11 -46 12 -30 2 -29 21 2 22 15 1 37 4 48 7 12 3 38 8 59 11 20 3
45 10 54 16 10 5 21 7 24 3 4 -3 13 0 22 7 8 7 15 9 15 4 0 -5 4 -4 8 1 4 6
33 19 64 30 31 10 55 22 52 27 -3 4 3 8 13 8 11 0 24 5 31 12 7 7 12 8 12 2 0
-5 4 -3 8 4 5 7 17 14 28 16 10 2 33 11 49 20 17 9 38 16 48 16 9 0 17 5 17
11 0 5 4 8 9 4 5 -3 12 -1 15 4 5 8 51 22 89 26 10 1 23 7 30 14 14 14 13 14
16 -1z"/>
<path d="M378 3963 c-8 -15 -10 -78 -3 -71 4 4 8 23 10 42 2 35 0 43 -7 29z"/>
</g>
</svg>
